<?xml version="1.0" encoding="UTF-8" standalone="no"?>
<!DOCTYPE svg PUBLIC "-//W3C//DTD SVG 1.1//EN" "http://www.w3.org/Graphics/SVG/1.1/DTD/svg11.dtd">
<svg xmlns:xlink="http://www.w3.org/1999/xlink" version="1.1" xmlns="http://www.w3.org/2000/svg"
     preserveAspectRatio="xMidYMid meet" viewBox="0 0 640 640" width="640" height="640">
    <defs>
        <path d="M600 209.25L600 549.25L640 549.25L640 189.25L320 29.25L0 189.25L320 349.25L600 209.25Z"
              id="cMTKkfWaG"></path>
        <path d="M601.54 209.25L601.54 549.25L641.54 549.25L641.54 189.25L321.54 29.25L1.54 189.25L321.54 349.25L601.54 209.25Z"
              id="fZdEmx7TM"></path>
        <mask id="maskaqPpR88IJ" x="1.54" y="29.25" width="640" height="520" maskUnits="userSpaceOnUse">
            <rect x="1.54" y="29.25" width="640" height="520" fill="white"></rect>
            <use xlink:href="#fZdEmx7TM" opacity="1" fill="black"></use>
        </mask>
        <path d="M320 560L520 460L520 282.36L320 382.36L120 282.36L120 460L320 560Z" id="e4TC0oyDh"></path>
        <path d="M320 560L520 460L520 282.36L320 382.36L120 282.36L120 460L320 560Z" id="brUbA9597"></path>
    </defs>
    <g>
        <g>
            <g>
                <use xlink:href="#cMTKkfWaG" opacity="1" fill="#ffffff" fill-opacity="1"></use>
                <g>
                    <use xlink:href="#cMTKkfWaG" opacity="1" fill-opacity="0" stroke="#000000" stroke-width="1"
                         stroke-opacity="0"></use>
                </g>
            </g>
            <g>
                <use xlink:href="#fZdEmx7TM" opacity="1" fill="#ff6e6e" fill-opacity="1"></use>
                <g mask="url(#maskaqPpR88IJ)">
                    <use xlink:href="#fZdEmx7TM" opacity="1" fill-opacity="0" stroke="#000000" stroke-width="0"
                         stroke-opacity="0"></use>
                </g>
            </g>
            <g>
                <use xlink:href="#e4TC0oyDh" opacity="1" fill="#ffffff" fill-opacity="1"></use>
                <g>
                    <use xlink:href="#e4TC0oyDh" opacity="1" fill-opacity="0" stroke="#000000" stroke-width="1"
                         stroke-opacity="0"></use>
                </g>
            </g>
            <g>
                <use xlink:href="#brUbA9597" opacity="1" fill="#4634b4" fill-opacity="1"></use>
                <g>
                    <use xlink:href="#brUbA9597" opacity="1" fill-opacity="0" stroke="#000000" stroke-width="0"
                         stroke-opacity="0"></use>
                </g>
            </g>
        </g>
    </g>
</svg>